<?xml version="1.0" encoding="UTF-8" standalone="no"?>
<!-- Created with Inkscape (http://www.inkscape.org/) -->

<svg
   xmlns:dc="http://purl.org/dc/elements/1.1/"
   xmlns:cc="http://creativecommons.org/ns#"
   xmlns:rdf="http://www.w3.org/1999/02/22-rdf-syntax-ns#"
   xmlns:svg="http://www.w3.org/2000/svg"
   xmlns="http://www.w3.org/2000/svg"
   version="1.1"
   width="892.91339"
   height="399.68503"
   id="svg3725">
  <defs
     id="defs3727" />
  <metadata
     id="metadata3730">
    <rdf:RDF>
      <cc:Work
         rdf:about="">
        <dc:format>image/svg+xml</dc:format>
        <dc:type
           rdf:resource="http://purl.org/dc/dcmitype/StillImage" />
        <dc:title></dc:title>
      </cc:Work>
    </rdf:RDF>
  </metadata>
  <g
     transform="translate(45.374629,-341.06491)"
     id="layer1">
    <g
       transform="matrix(17.454715,0,0,17.454715,-11517.995,-9100.4171)"
       id="g3754">
      <g
         transform="matrix(1.25,0,0,-1.25,708.09964,550.25281)"
         id="g3497">
        <path
           d="m 0,0 -4.241,-9.807 0,0.001 c -0.219,-0.515 -0.731,-0.877 -1.327,-0.877 l 0,0 -29.336,0 0.001,0 c -0.596,0 -1.109,0.362 -1.328,0.878 l 0.001,-0.002 -4.154,9.807 0,0.004 c -0.071,0.169 -0.11,0.357 -0.11,0.553 0,0.456 0.213,0.863 0.544,1.127 l -0.002,0 c 1.6,1.257 7.674,5.272 19.069,5.606 0.397,0.013 0.797,0.018 1.191,0.018 10.874,0 17.541,-4.339 19.244,-5.623 L -0.449,1.684 C -0.111,1.421 0.106,1.01 0.106,0.547 0.106,0.354 0,0 0,0"
           id="path3499"
           style="fill:#e2001a;fill-opacity:1;fill-rule:nonzero;stroke:none" />
      </g>
      <g
         transform="matrix(1.25,0,0,-1.25,690.10752,560.60541)"
         id="g3501">
        <path
           d="m 0,0 -2.82,0 -0.036,0.063 -2.768,4.902 -1.292,-1.545 0,-3.42 -2.419,0 0,11.367 2.419,0 0,-4.614 3.734,4.614 2.965,0 L -4.016,6.81 0,0 z"
           id="path3503"
           style="fill:#ffffff;fill-opacity:1;fill-rule:nonzero;stroke:none" />
      </g>
      <g
         transform="matrix(1.25,0,0,-1.25,695.60614,560.72241)"
         id="g3505">
        <path
           d="m 0,0 c -1.867,0 -3.108,0.45 -4.148,1.505 l -0.087,0.087 1.58,1.582 0.089,-0.088 c 0.604,-0.605 1.455,-0.901 2.597,-0.901 0.841,0 1.843,0.217 1.843,1.25 0,0.368 -0.105,0.66 -0.305,0.845 C 1.391,4.446 1.184,4.558 0.652,4.638 l -1.341,0.188 c -0.983,0.145 -1.71,0.457 -2.224,0.955 -0.562,0.561 -0.834,1.305 -0.834,2.276 0,1.022 0.372,1.894 1.076,2.523 0.714,0.637 1.724,0.973 2.92,0.973 1.592,0 2.727,-0.41 3.679,-1.33 L 4.019,10.134 2.468,8.6 2.38,8.685 c -0.673,0.643 -1.486,0.73 -2.192,0.73 -1.175,0 -1.594,-0.662 -1.594,-1.281 0,-0.281 0.103,-0.531 0.289,-0.705 0.218,-0.203 0.569,-0.35 0.962,-0.404 L 1.157,6.837 C 2.161,6.698 2.837,6.423 3.349,5.946 3.944,5.381 4.246,4.557 4.246,3.498 4.246,1.406 2.54,0 0,0"
           id="path3507"
           style="fill:#ffffff;fill-opacity:1;fill-rule:nonzero;stroke:none" />
      </g>
      <g
         transform="matrix(1.25,0,0,-1.25,671.44577,558.02991)"
         id="g3509">
        <path
           d="m 0,0 -2.264,0 0,2.733 2.264,0 C 0.983,2.733 1.452,2.124 1.452,1.374 1.452,0.625 0.983,0 0,0 m -2.264,7.245 2.122,0 C 0.78,7.245 1.296,6.729 1.296,5.965 1.296,5.2 0.78,4.684 -0.142,4.684 l -2.122,0 0,2.561 z M 2.357,3.767 c 0.627,0.395 1.234,1.225 1.234,2.291 0,2.004 -1.365,3.248 -3.56,3.248 l -4.59,0 0,-11.366 4.777,0 c 2.177,0 3.528,1.273 3.528,3.324 0,1.444 -0.793,2.166 -1.389,2.503"
           id="path3511"
           style="fill:#ffffff;fill-opacity:1;fill-rule:nonzero;stroke:none" />
      </g>
    </g>
  </g>
</svg>
