<?xml version="1.0" encoding="UTF-8"?>
<!-- Generator: Adobe Illustrator 13.0.2, SVG Export Plug-In . SVG Version: 6.00 Build 14948)  -->
<!DOCTYPE svg PUBLIC "-//W3C//DTD SVG 1.1//EN" "http://www.w3.org/Graphics/SVG/1.1/DTD/svg11.dtd">
<svg version="1.1" id="Ebene_1" xmlns="http://www.w3.org/2000/svg" xmlns:xlink="http://www.w3.org/1999/xlink" x="0px" y="0px" width="1012.972px" height="425.739px" viewBox="0 0 1012.972 425.739" enable-background="new 0 0 1012.972 425.739" xml:space="preserve">
<g>
	<defs>
		<rect id="SVGID_1_" width="1012.972" height="425.739"/>
	</defs>
	<clipPath id="SVGID_2_">
		<use xlink:href="#SVGID_1_" overflow="visible"/>
	</clipPath>
	<path clip-path="url(#SVGID_2_)" fill="#FFED00" d="M168.146,6.487C76.815,6.487,6.489,74.243,6.489,162.291   c0,88.042,70.327,155.789,161.657,155.789h676.675c91.326,0,161.669-67.747,161.669-155.789   c0-88.048-70.343-155.804-161.669-155.804H168.146L168.146,6.487z"/>
	<polygon clip-path="url(#SVGID_2_)" points="262.417,114.629 262.417,75.811 193.036,75.811 142.918,75.811 142.918,114.629    142.918,143.616 142.918,181.447 142.918,210.437 142.918,249.251 193.036,249.251 263.225,249.251 263.225,208.021    193.036,208.021 193.036,181.447 262.417,181.447 262.417,143.616 193.036,143.616 193.036,114.629  "/>
	<polygon clip-path="url(#SVGID_2_)" points="308.005,75.811 363.045,75.811 397.924,174.566 432.329,75.811 488.33,75.811    421.021,248.277 373.355,248.277  "/>
	<polygon clip-path="url(#SVGID_2_)" points="507,76.307 562.053,76.307 596.923,175.059 631.324,76.307 687.822,76.307    620.02,249.251 572.355,249.251  "/>
	<path clip-path="url(#SVGID_2_)" d="M842.583,248.277h53.57L829.821,75.811h-61.913L701.1,248.277h54.028l12.622-34.901h62.212   L842.583,248.277z M780.729,177.519l18.12-50.116l18.148,50.116H780.729z"/>
	<path clip-path="url(#SVGID_2_)" d="M163.755,0C71.238,0,0,70.579,0,162.295c0,91.701,71.238,162.271,163.755,162.271h685.454   c92.515,0,163.764-70.57,163.764-162.271C1012.972,70.579,941.723,0,849.208,0H163.755L163.755,0z M34.776,162.295   c0-70.316,57.863-127.519,128.979-127.519h685.454c71.115,0,128.983,57.202,128.983,127.519   c0,70.292-57.868,127.486-128.983,127.486H163.755C92.64,289.781,34.776,232.587,34.776,162.295"/>
	<path clip-path="url(#SVGID_2_)" d="M172.824,383.758c0,1.772-0.197,3.451-0.572,5.034c-0.385,1.586-0.997,2.976-1.85,4.182   c-0.854,1.202-1.974,2.171-3.368,2.896c-1.395,0.727-3.07,1.095-5.03,1.095c-1.019,0-1.993-0.13-2.941-0.381   c-0.955-0.25-1.787-0.635-2.519-1.139c-0.725-0.51-1.314-1.188-1.751-2.046c-0.447-0.854-0.666-1.854-0.666-2.994   c0-2.086,0.567-3.717,1.707-4.892c1.139-1.171,2.56-2.073,4.267-2.703c1.706-0.634,3.564-1.028,5.557-1.188   c1.993-0.162,3.812-0.24,5.459-0.24h1.707V383.758z M186.021,404.112c-0.224-1.653-0.367-3.333-0.446-5.05   c-0.072-1.711-0.107-3.774-0.107-6.191v-18.945c0-3.491-0.554-6.426-1.663-8.812c-1.112-2.376-2.636-4.285-4.565-5.71   c-1.931-1.429-4.245-2.458-6.943-3.094c-2.699-0.635-5.669-0.952-8.909-0.952c-2.671,0-5.513,0.285-8.533,0.858   c-3.019,0.572-5.762,1.304-8.242,2.188l0.573,8.868c2.22-1.344,4.587-2.322,7.099-2.935c2.51-0.613,4.972-0.917,7.389-0.917   c3.493,0,6.224,0.751,8.193,2.244c1.971,1.501,2.958,3.938,2.958,7.314v1.622c-0.894-0.06-1.85-0.103-2.859-0.134   c-1.019-0.033-1.975-0.05-2.859-0.05c-3.368,0-6.589,0.291-9.672,0.862c-3.078,0.571-5.812,1.523-8.188,2.861   c-2.385,1.33-4.271,3.081-5.665,5.239c-1.403,2.162-2.1,4.834-2.1,8.01c0,2.419,0.429,4.482,1.287,6.196   c0.858,1.716,2.027,3.146,3.525,4.289c1.493,1.146,3.207,1.989,5.142,2.526c1.939,0.54,4.021,0.812,6.242,0.812   c3.046,0,5.938-0.764,8.666-2.287c2.729-1.523,4.919-3.592,6.573-6.196l0.277,7.385H186.021z M232.77,394.03   c-3.181,1.589-6.611,2.385-10.293,2.385c-2.354,0-4.436-0.434-6.246-1.3c-1.809-0.867-3.338-2.038-4.576-3.517   c-1.232-1.48-2.171-3.213-2.805-5.2c-0.639-1.988-0.956-4.106-0.956-6.358c0-2.309,0.331-4.44,1-6.402   c0.667-1.956,1.636-3.624,2.904-5.003c1.273-1.381,2.828-2.475,4.673-3.276c1.841-0.803,3.941-1.206,6.291-1.206   c1.715,0,3.396,0.223,5.047,0.665c1.654,0.447,3.244,1.02,4.768,1.716l0.576-9.211c-4.387-1.309-8.931-1.965-13.635-1.965   c-3.816,0-7.291,0.558-10.436,1.666c-3.146,1.114-5.844,2.733-8.104,4.861c-2.252,2.131-4.021,4.723-5.29,7.77   c-1.269,3.051-1.907,6.513-1.907,10.391c0,3.942,0.585,7.452,1.764,10.537c1.171,3.08,2.859,5.718,5.058,7.91   c2.188,2.193,4.843,3.861,7.96,5.004c3.11,1.145,6.639,1.716,10.58,1.716c2.413,0,4.794-0.143,7.147-0.42   c2.346-0.28,4.665-0.795,6.952-1.545L232.77,394.03z M276.704,394.03c-3.175,1.589-6.607,2.385-10.288,2.385   c-2.354,0-4.437-0.434-6.247-1.3c-1.81-0.867-3.337-2.038-4.574-3.517c-1.239-1.48-2.175-3.213-2.81-5.2   c-0.635-1.988-0.956-4.106-0.956-6.358c0-2.309,0.334-4.44,1-6.402c0.669-1.956,1.635-3.624,2.909-5.003   c1.273-1.381,2.827-2.475,4.668-3.276c1.845-0.803,3.942-1.206,6.296-1.206c1.709,0,3.395,0.223,5.047,0.665   c1.654,0.447,3.239,1.02,4.767,1.716l0.574-9.211c-4.389-1.309-8.927-1.965-13.626-1.965c-3.817,0-7.301,0.558-10.442,1.666   c-3.145,1.114-5.848,2.733-8.1,4.861c-2.261,2.131-4.025,4.723-5.299,7.77c-1.268,3.051-1.903,6.513-1.903,10.391   c0,3.942,0.585,7.452,1.76,10.537c1.179,3.08,2.863,5.718,5.058,7.91c2.194,2.193,4.842,3.861,7.961,5.004   c3.114,1.145,6.64,1.716,10.579,1.716c2.412,0,4.798-0.143,7.148-0.42c2.351-0.28,4.668-0.795,6.956-1.545L276.704,394.03z    M295.62,376.435c0-1.395,0.193-2.865,0.571-4.414c0.376-1.554,0.994-2.977,1.845-4.277c0.853-1.295,1.925-2.372,3.221-3.224   c1.296-0.854,2.861-1.283,4.692-1.283c1.769,0,3.252,0.41,4.449,1.232c1.202,0.828,2.163,1.867,2.891,3.132   c0.727,1.27,1.232,2.677,1.519,4.226c0.28,1.552,0.424,3.088,0.424,4.607H295.62z M327.33,383.399v-2.939   c0-3.596-0.396-6.929-1.188-9.993c-0.794-3.062-2.043-5.714-3.759-7.958c-1.712-2.243-3.933-3.994-6.658-5.259   c-2.729-1.262-5.994-1.893-9.802-1.893c-3.425,0-6.585,0.622-9.47,1.858c-2.887,1.237-5.344,2.953-7.371,5.148   c-2.029,2.193-3.62,4.797-4.758,7.817c-1.14,3.016-1.711,6.308-1.711,9.863c0,7.945,2.09,14.128,6.272,18.542   c4.185,4.419,10.301,6.625,18.354,6.625c2.854,0,5.834-0.192,8.942-0.571c3.101-0.386,5.988-1.046,8.649-2.002l-0.571-8.864   c-2.029,1.063-4.359,1.858-6.992,2.39c-2.631,0.536-5.088,0.802-7.371,0.802c-2.033,0-3.9-0.322-5.616-0.966   c-1.711-0.639-3.217-1.536-4.517-2.689c-1.3-1.158-2.317-2.569-3.042-4.235c-0.733-1.667-1.099-3.561-1.099-5.675H327.33z    M369.254,383.248c-1.18-1.72-2.674-3.136-4.493-4.248c-1.814-1.114-3.762-2.02-5.83-2.727c-2.077-0.696-4.016-1.361-5.835-2   c-1.819-0.635-3.32-1.333-4.5-2.097c-1.18-0.759-1.764-1.773-1.764-3.042c0-1.206,0.287-2.175,0.862-2.904   c0.571-0.73,1.287-1.304,2.154-1.713c0.857-0.416,1.794-0.698,2.819-0.858c1.017-0.157,1.979-0.239,2.871-0.239   c2.101,0,4.272,0.224,6.507,0.668c2.232,0.446,4.307,1.052,6.218,1.812l0.571-8.524c-2.224-0.7-4.552-1.246-6.968-1.626   c-2.416-0.383-4.806-0.576-7.157-0.576c-2.234,0-4.539,0.241-6.924,0.716c-2.386,0.477-4.567,1.271-6.542,2.39   c-1.975,1.112-3.609,2.591-4.917,4.436c-1.305,1.85-1.953,4.105-1.953,6.783c0,2.613,0.58,4.712,1.764,6.303   c1.18,1.591,2.677,2.913,4.496,3.963c1.817,1.048,3.76,1.924,5.834,2.623c2.068,0.704,4.016,1.403,5.835,2.099   c1.812,0.703,3.309,1.542,4.489,2.525c1.18,0.987,1.769,2.27,1.769,3.858c0,1.141-0.268,2.11-0.812,2.904   c-0.541,0.797-1.243,1.425-2.101,1.903c-0.863,0.474-1.836,0.808-2.917,1.001c-1.085,0.188-2.167,0.287-3.248,0.287   c-2.424,0-4.896-0.287-7.415-0.858c-2.52-0.571-4.83-1.398-6.933-2.48l-0.574,9.187c2.611,0.832,5.255,1.438,7.927,1.823   c2.67,0.383,5.374,0.575,8.113,0.575c2.416,0,4.833-0.271,7.255-0.812c2.416-0.542,4.611-1.419,6.585-2.624   c1.97-1.211,3.565-2.789,4.771-4.732c1.206-1.937,1.814-4.31,1.814-7.11C371.025,387.192,370.434,384.964,369.254,383.248z    M412.715,383.248c-1.178-1.72-2.675-3.136-4.494-4.248c-1.814-1.114-3.762-2.02-5.831-2.727c-2.072-0.696-4.016-1.361-5.834-2   c-1.819-0.635-3.316-1.333-4.5-2.097c-1.18-0.759-1.764-1.773-1.764-3.042c0-1.206,0.291-2.175,0.863-2.904   c0.571-0.73,1.287-1.304,2.153-1.713c0.858-0.416,1.796-0.698,2.819-0.858c1.018-0.157,1.978-0.239,2.873-0.239   c2.099,0,4.271,0.224,6.504,0.668c2.232,0.446,4.307,1.052,6.218,1.812l0.574-8.524c-2.226-0.7-4.554-1.246-6.971-1.626   c-2.416-0.383-4.806-0.576-7.156-0.576c-2.235,0-4.539,0.241-6.925,0.716c-2.385,0.477-4.565,1.271-6.542,2.39   c-1.974,1.112-3.609,2.591-4.918,4.436c-1.304,1.85-1.952,4.105-1.952,6.783c0,2.613,0.584,4.712,1.764,6.303   c1.18,1.591,2.676,2.913,4.5,3.963c1.812,1.048,3.756,1.924,5.831,2.623c2.068,0.704,4.016,1.403,5.835,2.099   c1.816,0.703,3.309,1.542,4.488,2.525c1.184,0.987,1.775,2.27,1.775,3.858c0,1.141-0.273,2.11-0.814,2.904   c-0.545,0.797-1.248,1.425-2.104,1.903c-0.857,0.474-1.832,0.808-2.917,1.001c-1.085,0.188-2.167,0.287-3.248,0.287   c-2.427,0-4.898-0.287-7.417-0.858s-4.83-1.398-6.933-2.48l-0.573,9.187c2.611,0.832,5.254,1.438,7.927,1.823   c2.672,0.383,5.379,0.575,8.113,0.575c2.417,0,4.834-0.271,7.255-0.812c2.417-0.542,4.611-1.419,6.586-2.624   c1.969-1.211,3.565-2.789,4.771-4.732c1.206-1.937,1.814-4.31,1.814-7.11C414.485,387.192,413.895,384.964,412.715,383.248z    M469.07,394.631c-1.716,0.697-3.458,1.045-5.237,1.045c-2.353,0-3.896-0.692-4.627-2.085c-0.733-1.394-1.096-3.105-1.096-5.139   V365.07h10.678v-8.798H458.11v-13.93l-13.193,4.263v9.667h-8.582v8.798h8.582v23.207c0,2.476,0.188,4.758,0.573,6.851   c0.383,2.091,1.082,3.888,2.099,5.373c1.024,1.488,2.407,2.646,4.165,3.474c1.751,0.825,3.999,1.236,6.737,1.236   c1.84,0,3.698-0.159,5.576-0.478c1.875-0.316,3.672-0.759,5.386-1.332L469.07,394.631z M510.539,386.062   c-0.35,1.957-0.947,3.704-1.805,5.244c-0.849,1.543-1.975,2.779-3.368,3.71c-1.39,0.933-3.128,1.398-5.216,1.398   c-2.022,0-3.729-0.483-5.124-1.444c-1.39-0.965-2.51-2.219-3.363-3.76c-0.854-1.539-1.471-3.285-1.85-5.246   c-0.381-1.957-0.569-3.932-0.569-5.925c0-1.795,0.17-3.642,0.523-5.535c0.346-1.891,0.948-3.609,1.801-5.152   c0.854-1.541,1.974-2.792,3.364-3.751c1.394-0.966,3.132-1.449,5.217-1.449c2.149,0,3.92,0.483,5.314,1.449   c1.388,0.958,2.493,2.197,3.314,3.703c0.822,1.51,1.411,3.212,1.761,5.105c0.345,1.896,0.518,3.771,0.518,5.629   C511.056,382.099,510.883,384.102,510.539,386.062z M518.464,361.741c-4.479-4.252-10.579-6.384-18.314-6.384   c-3.676,0-7.041,0.558-10.083,1.666c-3.046,1.114-5.673,2.721-7.894,4.817c-2.219,2.095-3.948,4.686-5.187,7.77   c-1.236,3.077-1.854,6.557-1.854,10.434c0,3.817,0.554,7.28,1.666,10.392c1.109,3.114,2.745,5.77,4.898,7.958   c2.154,2.193,4.789,3.878,7.899,5.053c3.103,1.176,6.624,1.765,10.555,1.765c3.865,0,7.36-0.589,10.464-1.765   c3.105-1.175,5.74-2.859,7.895-5.053c2.158-2.188,3.806-4.83,4.95-7.907c1.14-3.083,1.711-6.563,1.711-10.442   C525.169,372.102,522.93,365.998,518.464,361.741z M584.371,383.248c-1.18-1.72-2.682-3.136-4.496-4.248   c-1.818-1.114-3.762-2.02-5.835-2.727c-2.071-0.696-4.019-1.361-5.833-2c-1.819-0.635-3.316-1.333-4.496-2.097   c-1.178-0.759-1.769-1.773-1.769-3.042c0-1.206,0.286-2.175,0.858-2.904c0.575-0.73,1.295-1.304,2.153-1.713   c0.862-0.416,1.806-0.698,2.823-0.858c1.018-0.157,1.979-0.239,2.873-0.239c2.104,0,4.271,0.224,6.505,0.668   c2.232,0.446,4.307,1.052,6.218,1.812l0.578-8.524c-2.235-0.7-4.557-1.246-6.976-1.626c-2.416-0.383-4.802-0.576-7.16-0.576   c-2.226,0-4.535,0.241-6.921,0.716c-2.39,0.477-4.569,1.271-6.541,2.39c-1.97,1.112-3.613,2.591-4.919,4.436   c-1.304,1.85-1.956,4.105-1.956,6.783c0,2.613,0.589,4.712,1.769,6.303c1.18,1.591,2.681,2.913,4.495,3.963   c1.819,1.048,3.763,1.924,5.835,2.623c2.072,0.704,4.017,1.403,5.835,2.099c1.813,0.703,3.313,1.542,4.492,2.525   c1.18,0.987,1.771,2.27,1.771,3.858c0,1.141-0.272,2.11-0.813,2.904c-0.545,0.797-1.245,1.425-2.104,1.903   c-0.862,0.474-1.836,0.808-2.918,1.001c-1.08,0.188-2.166,0.287-3.251,0.287c-2.423,0-4.894-0.287-7.408-0.858   c-2.52-0.571-4.835-1.398-6.934-2.48l-0.571,9.187c2.608,0.832,5.244,1.438,7.921,1.823c2.676,0.383,5.375,0.575,8.112,0.575   c2.416,0,4.839-0.271,7.255-0.812c2.417-0.542,4.616-1.419,6.59-2.624c1.966-1.211,3.561-2.789,4.771-4.732   c1.205-1.937,1.814-4.31,1.814-7.11C586.139,387.192,585.55,384.964,584.371,383.248z M605.664,376.435   c0-1.395,0.186-2.865,0.566-4.414c0.379-1.554,0.991-2.977,1.845-4.277c0.854-1.295,1.931-2.372,3.227-3.224   c1.291-0.854,2.853-1.283,4.689-1.283c1.766,0,3.248,0.41,4.449,1.232c1.197,0.828,2.162,1.867,2.888,3.132   c0.729,1.27,1.231,2.677,1.518,4.226c0.288,1.552,0.43,3.088,0.43,4.607H605.664z M637.374,383.399v-2.939   c0-3.596-0.402-6.929-1.197-9.993c-0.791-3.062-2.042-5.714-3.754-7.958c-1.716-2.243-3.935-3.994-6.663-5.259   c-2.728-1.262-5.993-1.893-9.8-1.893c-3.426,0-6.58,0.622-9.467,1.858c-2.885,1.237-5.343,2.953-7.376,5.148   c-2.032,2.193-3.613,4.797-4.758,7.817c-1.145,3.016-1.711,6.308-1.711,9.863c0,7.945,2.092,14.128,6.276,18.542   c4.183,4.419,10.304,6.625,18.354,6.625c2.85,0,5.83-0.192,8.936-0.571c3.108-0.386,5.994-1.046,8.658-2.002l-0.571-8.864   c-2.033,1.063-4.366,1.858-6.996,2.39c-2.634,0.536-5.089,0.802-7.371,0.802c-2.029,0-3.9-0.322-5.611-0.966   c-1.717-0.639-3.222-1.536-4.522-2.689c-1.3-1.158-2.315-2.569-3.047-4.235c-0.729-1.667-1.089-3.561-1.089-5.675H637.374z    M684.055,394.03c-3.175,1.589-6.607,2.385-10.288,2.385c-2.359,0-4.441-0.434-6.251-1.3c-1.811-0.867-3.337-2.038-4.569-3.517   c-1.243-1.48-2.178-3.213-2.814-5.2c-0.636-1.988-0.952-4.106-0.952-6.358c0-2.309,0.335-4.44,1-6.402   c0.666-1.956,1.635-3.624,2.908-5.003c1.27-1.381,2.823-2.475,4.669-3.276c1.845-0.803,3.935-1.206,6.294-1.206   c1.711,0,3.396,0.223,5.049,0.665c1.652,0.447,3.239,1.02,4.763,1.716l0.571-9.211c-4.382-1.309-8.926-1.965-13.626-1.965   c-3.814,0-7.295,0.558-10.439,1.666c-3.141,1.114-5.844,2.733-8.101,4.861c-2.26,2.131-4.021,4.723-5.293,7.77   c-1.274,3.051-1.909,6.513-1.909,10.391c0,3.942,0.591,7.452,1.764,10.537c1.176,3.08,2.865,5.718,5.054,7.91   c2.199,2.193,4.848,3.861,7.963,5.004c3.118,1.145,6.637,1.716,10.579,1.716c2.416,0,4.797-0.143,7.147-0.42   c2.35-0.28,4.673-0.795,6.959-1.545L684.055,394.03z M737.83,404.112c-0.218-1.779-0.365-3.574-0.437-5.384   c-0.075-1.814-0.112-3.604-0.112-5.389v-37.067h-13.192v26.337c0,1.592-0.146,3.163-0.434,4.724   c-0.284,1.558-0.79,2.956-1.519,4.197c-0.729,1.239-1.712,2.243-2.952,3.003c-1.234,0.764-2.771,1.144-4.611,1.144   c-1.777,0-3.189-0.33-4.234-1c-1.051-0.667-1.841-1.529-2.383-2.573c-0.54-1.051-0.888-2.257-1.045-3.629   c-0.16-1.365-0.236-2.783-0.236-4.244v-27.958h-13.197v30.907c0,2.739,0.3,5.218,0.901,7.443c0.604,2.225,1.539,4.118,2.814,5.674   c1.27,1.559,2.934,2.769,4.996,3.627c2.064,0.858,4.527,1.287,7.38,1.287c3.369,0,6.385-0.747,9.052-2.239   c2.666-1.49,4.798-3.766,6.38-6.817l0.289,7.958H737.83z M780.934,355.723c-0.635-0.219-1.258-0.366-1.857-0.438   c-0.604-0.077-1.253-0.111-1.953-0.111c-1.651,0-3.162,0.3-4.525,0.897c-1.368,0.604-2.622,1.376-3.767,2.319   c-1.146,0.948-2.145,2.033-3.007,3.266c-0.856,1.232-1.58,2.51-2.176,3.834l-0.294-9.218h-12.394   c0.193,1.784,0.317,3.552,0.379,5.298c0.063,1.751,0.099,3.521,0.099,5.299v37.243h13.197V382.69c0-1.85,0.206-3.727,0.617-5.64   c0.416-1.915,1.08-3.635,2.003-5.163c0.923-1.532,2.129-2.775,3.626-3.731c1.492-0.96,3.351-1.438,5.576-1.438   c1.456,0,2.823,0.223,4.097,0.666L780.934,355.723z M802.834,404.112v-47.84h-13.196v47.84H802.834z M802.834,347.476v-10.633   h-13.196v10.633H802.834z M844.391,394.631c-1.715,0.697-3.458,1.045-5.234,1.045c-2.355,0-3.896-0.692-4.629-2.085   c-0.733-1.394-1.094-3.105-1.094-5.139V365.07h10.677v-8.798h-10.677v-13.93l-13.193,4.263v9.667h-8.584v8.798h8.584v23.207   c0,2.476,0.188,4.758,0.571,6.851c0.386,2.091,1.081,3.888,2.101,5.373c1.022,1.488,2.407,2.646,4.163,3.474   c1.751,0.825,3.998,1.236,6.736,1.236c1.841,0,3.7-0.159,5.576-0.478c1.876-0.316,3.673-0.759,5.389-1.332L844.391,394.631z    M896.054,356.272h-13.009l-9.927,36.497l-10.052-36.497h-13.931l17.414,49.552l-1.231,3.903c-0.703,2.1-1.689,3.749-2.957,4.959   c-1.269,1.206-3.012,1.809-5.229,1.809c-0.889,0-1.746-0.079-2.574-0.236c-0.82-0.165-1.678-0.4-2.566-0.714l-0.569,9.05   c1.646,0.313,3.136,0.587,4.47,0.81c1.33,0.224,2.921,0.335,4.762,0.335c2.407,0,4.517-0.365,6.324-1.094   c1.811-0.733,3.415-1.783,4.809-3.146c1.395-1.368,2.617-3.05,3.664-5.053c1.049-2.003,2.018-4.303,2.904-6.907L896.054,356.272z"/>
</g>
</svg>