<?xml version="1.0" encoding="UTF-8" standalone="no"?>
<!-- Created with Inkscape (http://www.inkscape.org/) -->
<svg
   xmlns:svg="http://www.w3.org/2000/svg"
   xmlns="http://www.w3.org/2000/svg"
   version="1.0"
   width="617.14001"
   height="318.57001"
   id="svg2">
  <defs
     id="defs4" />
  <g
     transform="translate(27.142865,5.4949782)"
     id="layer1">
    <g
       transform="matrix(0.3980952,0,0,0.3980952,100.57819,-41.079577)"
       id="g2412">
      <path
         d="M -295.7143,489.50503 L -295.7143,114.50503 L 454.2857,114.50503 L 1204.2857,114.50503 L 1204.2857,489.50503 L 1204.2857,864.50503 L 454.2857,864.50503 L -295.7143,864.50503 L -295.7143,489.50503 z"
         id="path2410"
         style="fill:#01123d;fill-opacity:1" />
      <path
         d="M -33.824256,586.45633 L 4.5657843,544.41952 L 6.6757443,546.41933 C 7.8362243,547.51922 24.985704,566.41447 44.785704,588.40878 L 80.785704,628.39843 L 132.42339,628.45173 L 184.06108,628.50503 L 236.92339,527.06702 C 265.99766,471.27611 290.06372,425.93861 290.40352,426.31702 C 290.74333,426.69542 306.63656,457.94253 325.72182,495.75503 L 360.4223,564.50503 L 298.50618,564.50503 L 236.59007,564.50503 L 220.18034,596.25503 L 203.77062,628.00503 L 500.27816,628.26101 C 750.13001,628.47671 796.94451,628.30181 797.79471,627.14949 C 798.34961,626.39737 822.62171,581.61431 851.73271,527.63158 C 880.84371,473.64885 904.99161,429.82403 905.39461,430.2431 C 906.15711,431.03586 975.28571,563.45769 975.28571,564.12545 C 975.28571,564.33422 946.97311,564.50503 912.36891,564.50503 L 849.45211,564.50503 L 833.33041,596.13324 C 824.46351,613.52875 817.37781,627.93044 817.58431,628.137 C 817.79091,628.34355 876.27511,628.39836 947.54931,628.25879 L 1077.1388,628.00503 L 1006.4759,492.25503 L 935.81301,356.50503 L 903.12661,356.50503 L 870.44021,356.50503 L 862.71861,370.75503 C 839.02711,414.47667 786.48581,511.91098 773.33811,536.50503 C 764.95841,552.18003 757.96601,565.14516 757.79931,565.31644 C 757.51761,565.60586 688.22371,511.7807 671.16761,498.02388 L 663.54951,491.8794 L 710.38191,456.44222 L 757.21441,421.00503 L 757.25001,388.75503 L 757.28571,356.50503 L 596.29021,356.50503 L 435.29467,356.50503 L 435.04018,464.11617 L 434.7857,571.72732 L 378.7857,464.13398 L 322.7857,356.54064 L 288.96458,356.77283 L 255.14346,357.00503 L 195.8136,466.85601 C 163.18218,527.27404 136.08381,577.10692 135.595,577.59573 C 135.07668,578.11405 122.63595,565.27728 105.74598,546.79649 C 89.817834,529.3681 71.919624,509.8137 65.972184,503.34228 L 55.158674,491.57605 L 112.36149,428.29054 C 143.82304,393.48351 171.39531,363.09253 173.63321,360.75503 L 177.70212,356.50503 L 132.16805,356.50503 L 86.633984,356.50503 L 8.7098443,442.58252 L -69.214296,528.66 L -69.469846,442.58252 L -69.725406,356.50503 L -107.71985,356.50503 L -145.7143,356.50503 L -145.7143,492.50503 L -145.7143,628.50503 L -108.9643,628.49908 L -72.214296,628.49314 L -33.824256,586.45633 z"
         id="path2408"
         style="fill:#ffffff;fill-opacity:1" />
      <path
         d="M 509.2857,491.00503 L 509.2857,420.50503 L 581.48571,420.50503 C 621.19571,420.50503 653.25821,420.88571 652.73571,421.35099 C 652.21321,421.81627 632.09821,436.87956 608.03571,454.82497 C 583.97321,472.77039 564.2857,487.68452 564.2857,487.96748 C 564.2857,488.25044 584.53571,504.69234 609.28571,524.50503 C 634.03571,544.31772 654.28571,560.74791 654.28571,561.01656 C 654.28571,561.28522 621.66071,561.50503 581.78571,561.50503 L 509.2857,561.50503 L 509.2857,491.00503 z"
         id="path2406"
         style="fill:#01123d;fill-opacity:1" />
      <path
         d="M 1038.8306,407.7474 C 1047.5727,403.26543 1054.2857,392.51848 1054.2857,383.00503 C 1054.2857,377.26891 1051.3962,369.91217 1047.328,365.29043 C 1034.7011,350.9455 1010.2822,353.73801 1001.7892,370.49819 C 993.90291,386.06102 1001.519,404.13453 1018.2792,409.63011 C 1022.6913,411.07681 1034.4351,410.00097 1038.8306,407.7474 z"
         id="path2404"
         style="fill:#ffffff;fill-opacity:1" />
      <path
         d="M 1016.5458,403.04596 C 1007.3131,398.74747 1002.7287,388.16378 1005.3559,377.21249 C 1007.0727,370.05602 1013.8794,363.28178 1021.0918,361.55154 C 1028.9406,359.66865 1035.2416,361.48562 1041.3347,367.38888 C 1046.8424,372.72494 1048.8237,378.2744 1047.9285,385.85748 C 1046.0906,401.42582 1030.9167,409.73664 1016.5458,403.04596 z"
         id="path2402"
         style="fill:#01123d;fill-opacity:1" />
      <path
         d="M 1021.0814,392.25503 C 1021.3585,385.92872 1021.524,385.50503 1023.7174,385.50503 C 1025.5523,385.50503 1026.956,387.01699 1030.2164,392.50503 C 1033.5652,398.14194 1034.8531,399.50503 1036.8304,399.50503 C 1038.1808,399.50503 1039.2857,399.1248 1039.2857,398.66007 C 1039.2857,398.19534 1037.4878,395.0334 1035.2904,391.63354 L 1031.295,385.45198 L 1033.6895,384.54162 C 1039.6647,382.26986 1041.0245,375.09003 1036.3626,370.42811 C 1033.5612,367.62672 1033.0617,367.50503 1024.3626,367.50503 L 1015.2857,367.50503 L 1015.2857,382.83836 C 1015.2857,391.2717 1015.6047,398.49068 1015.9945,398.88055 C 1016.3844,399.27041 1017.6219,399.45791 1018.7445,399.29721 C 1020.5339,399.04107 1020.8222,398.17239 1021.0814,392.25503 z"
         id="path2400"
         style="fill:#ffffff;fill-opacity:1" />
      <path
         d="M 1021.2857,376.64432 L 1021.2857,371.50503 L 1024.7206,371.50503 C 1030.5886,371.50503 1033.2857,373.05311 1033.2857,376.42126 C 1033.2857,380.02837 1032.6945,380.43241 1026.3095,381.18861 L 1021.2857,381.78361 L 1021.2857,376.64432 z"
         id="path2396"
         style="fill:#01123d;fill-opacity:1" />
    </g>
  </g>
</svg>
