<?xml version="1.0" encoding="utf-8"?>
<!-- Generator: Adobe Illustrator 14.0.0, SVG Export Plug-In . SVG Version: 6.00 Build 43363)  -->
<!DOCTYPE svg PUBLIC "-//W3C//DTD SVG 1.1//EN" "http://www.w3.org/Graphics/SVG/1.1/DTD/svg11.dtd">
<svg version="1.1" id="Ebene_1" xmlns="http://www.w3.org/2000/svg" xmlns:xlink="http://www.w3.org/1999/xlink" x="0px" y="0px"
	 width="141.73px" height="56.693px" viewBox="0 0 141.73 56.693" enable-background="new 0 0 141.73 56.693" xml:space="preserve">
<g>
	<polygon fill-rule="evenodd" clip-rule="evenodd" fill="#009DD1" points="3.05,3.376 138.467,3.376 138.467,38.199 3.05,38.199 
		3.05,3.376 3.05,3.376 	"/>
	
		<polygon fill-rule="evenodd" clip-rule="evenodd" fill="#FFFFFF" stroke="#FFFFFF" stroke-width="0.216" stroke-miterlimit="2.6131" points="
		16.793,9.66 20.201,9.66 25.719,26.593 31.235,9.66 35.462,9.66 40.978,26.593 46.495,9.66 49.902,9.66 42.652,31.912 
		39.304,31.912 33.35,13.628 27.392,31.912 24.045,31.912 16.793,9.66 16.793,9.66 	"/>
	
		<polygon fill-rule="evenodd" clip-rule="evenodd" fill="#FFFFFF" stroke="#FFFFFF" stroke-width="0.216" stroke-miterlimit="2.6131" points="
		53.357,9.66 56.606,9.66 56.606,31.912 53.357,31.912 53.357,9.66 53.357,9.66 	"/>
	
		<polygon fill-rule="evenodd" clip-rule="evenodd" fill="#FFFFFF" stroke="#FFFFFF" stroke-width="0.216" stroke-miterlimit="2.6131" points="
		61.074,9.66 64.327,9.66 64.327,28.771 75.224,28.771 75.224,31.912 61.074,31.912 61.074,9.66 61.074,9.66 	"/>
	
		<polygon fill-rule="evenodd" clip-rule="evenodd" fill="#FFFFFF" stroke="#FFFFFF" stroke-width="0.216" stroke-miterlimit="2.6131" points="
		78.003,9.66 81.252,9.66 81.252,18.795 90.468,9.66 94.998,9.66 84.959,19.651 96.011,31.912 91.703,31.912 81.252,20.263 
		81.252,31.912 78.003,31.912 78.003,9.66 78.003,9.66 	"/>
	
		<polygon fill-rule="evenodd" clip-rule="evenodd" fill="#FFFFFF" stroke="#FFFFFF" stroke-width="0.216" stroke-miterlimit="2.6131" points="
		97.978,31.912 107.51,9.66 111.028,9.66 120.657,31.912 117.142,31.912 109.317,13.655 101.494,31.912 97.978,31.912 
		97.978,31.912 	"/>
	<path fill-rule="evenodd" clip-rule="evenodd" fill="#FFFFFF" d="M120.868,11.148h-0.685v1.271h0.685
		c0.387,0,0.658-0.048,0.813-0.141c0.157-0.093,0.234-0.252,0.234-0.475c0-0.232-0.081-0.401-0.246-0.502
		C121.506,11.201,121.237,11.148,120.868,11.148L120.868,11.148L120.868,11.148z M120.972,10.79c0.514,0,0.896,0.079,1.143,0.237
		c0.246,0.16,0.368,0.405,0.368,0.738c0,0.249-0.077,0.457-0.231,0.625c-0.157,0.167-0.366,0.269-0.629,0.304l0.814,1.631h-0.629
		l-0.771-1.554h-0.854v1.554h-0.549V10.79H120.972L120.972,10.79L120.972,10.79z M123.706,12.619c0-0.374-0.069-0.727-0.207-1.058
		c-0.139-0.333-0.337-0.625-0.599-0.878c-0.271-0.26-0.58-0.458-0.924-0.597c-0.345-0.138-0.714-0.206-1.099-0.206
		c-0.377,0-0.732,0.067-1.069,0.2c-0.337,0.134-0.637,0.33-0.904,0.586c-0.274,0.27-0.481,0.571-0.63,0.905
		c-0.147,0.333-0.219,0.68-0.219,1.039c0,0.36,0.071,0.703,0.214,1.033c0.144,0.33,0.352,0.626,0.619,0.887
		c0.271,0.26,0.577,0.458,0.918,0.595c0.34,0.138,0.699,0.208,1.071,0.208c0.374,0,0.734-0.069,1.087-0.209
		c0.346-0.14,0.658-0.34,0.936-0.603c0.263-0.248,0.463-0.533,0.6-0.854C123.639,13.345,123.706,12.996,123.706,12.619
		L123.706,12.619L123.706,12.619z M120.878,9.537c0.437,0,0.849,0.076,1.236,0.229c0.385,0.154,0.728,0.378,1.024,0.672
		c0.293,0.283,0.521,0.613,0.678,0.985c0.157,0.374,0.237,0.766,0.237,1.183c0,0.418-0.078,0.812-0.233,1.178
		c-0.154,0.365-0.383,0.69-0.682,0.975c-0.31,0.295-0.658,0.522-1.048,0.681c-0.392,0.157-0.794,0.236-1.213,0.236
		c-0.427,0-0.829-0.077-1.212-0.233c-0.383-0.154-0.725-0.38-1.025-0.675c-0.303-0.291-0.533-0.622-0.693-0.993
		c-0.158-0.372-0.235-0.761-0.235-1.169c0-0.402,0.08-0.792,0.243-1.169c0.163-0.38,0.399-0.718,0.703-1.018
		c0.292-0.286,0.628-0.504,1.006-0.656C120.043,9.611,120.448,9.537,120.878,9.537L120.878,9.537L120.878,9.537z"/>
	<path fill-rule="evenodd" clip-rule="evenodd" fill="#009DD1" d="M5.814,50.305c0.025,0.703,0.239,1.223,0.641,1.561
		c0.405,0.338,1.023,0.508,1.859,0.508c0.812,0,1.452-0.17,1.922-0.504c0.467-0.332,0.703-0.789,0.703-1.375
		c0-0.824-0.84-1.447-2.522-1.869c-0.194-0.047-0.343-0.084-0.44-0.109c-0.092-0.023-0.232-0.061-0.426-0.111
		c-0.95-0.23-1.613-0.459-1.984-0.68c-0.366-0.221-0.656-0.523-0.864-0.906c-0.206-0.385-0.309-0.809-0.309-1.271
		c0-0.938,0.361-1.68,1.089-2.229C6.213,42.771,7.21,42.5,8.478,42.5c1.117,0,1.999,0.234,2.641,0.711
		c0.644,0.479,0.964,1.129,0.964,1.958v0.168h-1.46c-0.025-0.531-0.231-0.934-0.626-1.219c-0.395-0.292-0.945-0.432-1.653-0.432
		c-0.737,0-1.327,0.16-1.764,0.483c-0.438,0.32-0.656,0.744-0.656,1.285c0,0.705,0.809,1.266,2.427,1.67
		c0.23,0.059,0.405,0.104,0.528,0.131c1.447,0.373,2.402,0.781,2.869,1.229c0.463,0.447,0.694,1.074,0.694,1.885
		c0,1.029-0.359,1.834-1.08,2.416c-0.721,0.584-1.723,0.871-3.003,0.871c-1.388,0-2.415-0.264-3.083-0.785
		c-0.668-0.523-1-1.326-1-2.416v-0.148H5.814L5.814,50.305L5.814,50.305z"/>
	<path fill-rule="evenodd" clip-rule="evenodd" fill="#009DD1" d="M22.578,50.563c-0.019,0.947-0.383,1.701-1.093,2.256
		c-0.708,0.561-1.661,0.836-2.856,0.836c-1.462,0-2.579-0.471-3.35-1.418c-0.769-0.947-1.154-2.314-1.154-4.109
		c0-1.793,0.404-3.18,1.209-4.159c0.809-0.982,1.953-1.469,3.434-1.469c1.156,0,2.072,0.264,2.739,0.795
		c0.671,0.531,1.02,1.268,1.042,2.202h-1.532c-0.05-0.551-0.293-1-0.731-1.344c-0.438-0.344-0.99-0.51-1.657-0.51
		c-0.929,0-1.656,0.389-2.176,1.168c-0.521,0.777-0.78,1.871-0.78,3.271c0,1.379,0.258,2.445,0.77,3.195
		c0.514,0.758,1.242,1.131,2.186,1.131c0.682,0,1.23-0.162,1.643-0.488c0.413-0.33,0.648-0.781,0.702-1.357H22.578L22.578,50.563
		L22.578,50.563z"/>
	<polygon fill-rule="evenodd" clip-rule="evenodd" fill="#009DD1" points="25.94,53.471 24.467,53.471 24.467,42.66 25.94,42.66 
		25.94,47.272 31.257,47.272 31.257,42.66 32.693,42.66 32.693,53.471 31.257,53.471 31.257,48.559 25.94,48.559 25.94,53.471 
		25.94,53.471 	"/>
	<polygon fill-rule="evenodd" clip-rule="evenodd" fill="#009DD1" points="35.187,53.471 35.187,42.66 36.617,42.66 36.617,52.184 
		41.535,52.184 41.535,53.471 35.187,53.471 35.187,53.471 	"/>
	<polygon fill-rule="evenodd" clip-rule="evenodd" fill="#009DD1" points="44.664,53.471 43.22,53.471 43.22,42.66 44.664,42.66 
		44.664,53.471 44.664,53.471 	"/>
	<polygon fill-rule="evenodd" clip-rule="evenodd" fill="#009DD1" points="47.169,53.471 47.169,42.66 53.875,42.66 53.875,43.945 
		48.613,43.945 48.613,47.227 53.655,47.227 53.655,48.5 48.613,48.5 48.613,52.184 54,52.184 54,53.471 47.169,53.471 
		47.169,53.471 	"/>
	<path fill-rule="evenodd" clip-rule="evenodd" fill="#009DD1" d="M57.374,50.305c0.024,0.703,0.237,1.223,0.641,1.561
		c0.405,0.338,1.022,0.508,1.858,0.508c0.81,0,1.451-0.17,1.923-0.504c0.468-0.332,0.704-0.789,0.704-1.375
		c0-0.824-0.841-1.447-2.522-1.869c-0.196-0.047-0.345-0.084-0.441-0.109c-0.093-0.023-0.233-0.061-0.426-0.111
		c-0.951-0.23-1.613-0.459-1.984-0.68c-0.368-0.221-0.656-0.523-0.864-0.906c-0.208-0.385-0.31-0.809-0.31-1.271
		c0-0.938,0.362-1.68,1.09-2.229c0.729-0.547,1.728-0.818,2.993-0.818c1.119,0,1.999,0.234,2.643,0.711
		c0.642,0.479,0.963,1.129,0.963,1.958v0.168h-1.458c-0.025-0.531-0.233-0.934-0.626-1.219c-0.396-0.292-0.945-0.432-1.653-0.432
		c-0.739,0-1.327,0.16-1.765,0.483c-0.439,0.32-0.656,0.744-0.656,1.285c0,0.705,0.809,1.266,2.426,1.67
		c0.231,0.059,0.406,0.104,0.528,0.131c1.447,0.373,2.402,0.781,2.868,1.229c0.463,0.447,0.696,1.074,0.696,1.885
		c0,1.029-0.36,1.834-1.082,2.416c-0.721,0.584-1.721,0.871-3.002,0.871c-1.389,0-2.416-0.264-3.083-0.785
		c-0.668-0.523-1-1.326-1-2.416v-0.148H57.374L57.374,50.305L57.374,50.305z"/>
	<path fill-rule="evenodd" clip-rule="evenodd" fill="#009DD1" d="M67.222,50.305c0.025,0.703,0.239,1.223,0.641,1.561
		c0.405,0.338,1.024,0.508,1.859,0.508c0.81,0,1.451-0.17,1.922-0.504c0.469-0.332,0.703-0.789,0.703-1.375
		c0-0.824-0.84-1.447-2.523-1.869c-0.194-0.047-0.343-0.084-0.44-0.109c-0.092-0.023-0.231-0.061-0.426-0.111
		c-0.95-0.23-1.613-0.459-1.984-0.68c-0.368-0.221-0.655-0.523-0.864-0.906c-0.207-0.385-0.309-0.809-0.309-1.271
		c0-0.938,0.362-1.68,1.09-2.229c0.729-0.547,1.726-0.818,2.993-0.818c1.117,0,1.999,0.234,2.642,0.711
		c0.644,0.479,0.964,1.129,0.964,1.958v0.168h-1.458c-0.027-0.531-0.233-0.934-0.626-1.219c-0.396-0.292-0.947-0.432-1.655-0.432
		c-0.739,0-1.327,0.16-1.765,0.483c-0.438,0.32-0.654,0.744-0.654,1.285c0,0.705,0.807,1.266,2.426,1.67
		c0.23,0.059,0.405,0.104,0.528,0.131c1.446,0.373,2.402,0.781,2.866,1.229c0.465,0.447,0.698,1.074,0.698,1.885
		c0,1.029-0.361,1.834-1.082,2.416c-0.722,0.584-1.723,0.871-3.003,0.871c-1.389,0-2.415-0.264-3.082-0.785
		c-0.669-0.523-1.001-1.326-1.001-2.416v-0.148H67.222L67.222,50.305L67.222,50.305z"/>
	<polygon fill-rule="evenodd" clip-rule="evenodd" fill="#009DD1" points="79.932,53.471 78.488,53.471 78.488,43.959 
		74.901,43.959 74.901,42.66 83.53,42.66 83.53,43.959 79.932,43.959 79.932,53.471 79.932,53.471 	"/>
	<polygon fill-rule="evenodd" clip-rule="evenodd" fill="#009DD1" points="84.99,53.471 84.99,42.66 91.694,42.66 91.694,43.945 
		86.435,43.945 86.435,47.227 91.477,47.227 91.477,48.5 86.435,48.5 86.435,52.184 91.82,52.184 91.82,53.471 84.99,53.471 
		84.99,53.471 	"/>
	<path fill-rule="evenodd" clip-rule="evenodd" fill="#009DD1" d="M102.107,50.563c-0.02,0.947-0.382,1.701-1.094,2.256
		c-0.707,0.561-1.661,0.836-2.856,0.836c-1.462,0-2.578-0.471-3.35-1.418c-0.767-0.947-1.151-2.314-1.151-4.109
		c0-1.793,0.402-3.18,1.208-4.159c0.807-0.982,1.951-1.469,3.434-1.469c1.156,0,2.071,0.264,2.737,0.795
		c0.671,0.531,1.02,1.268,1.042,2.202h-1.529c-0.051-0.551-0.293-1-0.732-1.344c-0.438-0.344-0.991-0.51-1.658-0.51
		c-0.93,0-1.655,0.389-2.176,1.168c-0.521,0.777-0.779,1.871-0.779,3.271c0,1.379,0.257,2.445,0.769,3.195
		c0.514,0.758,1.242,1.131,2.187,1.131c0.684,0,1.229-0.162,1.643-0.488c0.415-0.33,0.649-0.781,0.701-1.357H102.107L102.107,50.563
		L102.107,50.563z"/>
	<polygon fill-rule="evenodd" clip-rule="evenodd" fill="#009DD1" points="105.471,53.471 103.997,53.471 103.997,42.66 
		105.471,42.66 105.471,47.272 110.786,47.272 110.786,42.66 112.223,42.66 112.223,53.471 110.786,53.471 110.786,48.559 
		105.471,48.559 105.471,53.471 105.471,53.471 	"/>
	<polygon fill-rule="evenodd" clip-rule="evenodd" fill="#009DD1" points="114.732,53.471 114.732,42.66 116.792,42.66 
		121.912,51.481 121.912,42.66 123.216,42.66 123.216,53.471 121.44,53.471 116.066,44.301 116.066,53.471 114.732,53.471 
		114.732,53.471 	"/>
	<polygon fill-rule="evenodd" clip-rule="evenodd" fill="#009DD1" points="127.182,53.471 125.738,53.471 125.738,42.66 
		127.182,42.66 127.182,53.471 127.182,53.471 	"/>
	<polygon fill-rule="evenodd" clip-rule="evenodd" fill="#009DD1" points="129.687,53.471 129.687,42.66 131.131,42.66 
		131.131,47.299 135.574,42.66 137.51,42.66 132.811,47.471 138.082,53.471 136.007,53.471 131.131,47.752 131.131,53.471 
		129.687,53.471 129.687,53.471 	"/>
</g>
</svg>
