<?xml version="1.0" encoding="UTF-8" standalone="no"?>
<svg
   xmlns:svg="http://www.w3.org/2000/svg"
   xmlns="http://www.w3.org/2000/svg"
   version="1.0"
   width="568"
   height="379"
   viewBox="-0.447 -0.843 568 379"
   id="svg2"
   xml:space="preserve">
	<defs
   id="defs4">
	</defs>
	<g
   transform="matrix(0.9823609,0,0,0.9734911,6,3.9999875)"
   id="g6">
		<rect
   width="566.92401"
   height="377.23099"
   x="0"
   y="0"
   style="fill:#2a448b"
   id="rect8" /> 
		<path
   d="M 274.033,364.15 L 232.431,364.15 L 232.363,322.963 L 197.295,323.051 L 197.334,364.15 L 153.887,364.15 L 153.926,244.853 C 153.926,234.062 162.559,194.472 215.694,194.472 C 268.848,194.472 274.034,242.372 274.034,249.833 L 274.034,364.15 M 232.588,246.172 C 232.588,241.563 225.869,231.533 214.15,231.533 C 202.451,231.533 196.504,240.752 196.504,246.172 C 196.504,248.633 196.504,279.78 196.504,279.78 L 232.588,279.78 C 232.588,279.78 232.588,249.17 232.588,246.172 z M 547.109,235.952 L 547.109,197.939 C 528.955,198.403 510.986,197.182 493.593,197.939 C 483.993,198.349 476.913,198.862 466.21,200.732 C 462.528,201.474 427.421,206.25 427.421,245.522 C 427.421,276.484 441.972,285.214 451.776,290.981 C 469.296,301.313 499.842,294.599 507.928,302.334 C 516.014,310.063 510.037,321.123 500.594,322.192 L 427.42,322.153 L 427.42,364.15 L 495.223,364.15 C 498.016,364.052 521.414,363.09 535.838,351.992 C 548.846,342.002 553.143,322.451 553.201,310.971 C 553.338,287.851 542.244,271.074 532.156,266.659 C 504.422,254.559 477.683,265.663 471.902,254.623 C 466.131,243.583 473.65,236.2 481.609,235.951 L 547.109,235.951 M 412.09,306.982 C 412.09,296.381 412.061,198.1 412.061,198.1 L 370.831,198.1 L 370.831,306.982 C 370.831,306.982 371.065,325.312 352.54,325.253 C 338.37,325.312 333.585,316.562 333.145,306.982 L 333.106,197.939 L 291.7,197.939 C 291.7,197.939 291.807,293.72 291.807,306.982 C 291.807,320.253 297.237,364.15 352.627,364.15 C 408.017,364.15 412.09,317.593 412.09,306.982 M 92.109,197.974 L 92.109,259.663 L 56.171,259.683 L 56.22,197.94 L 13.105,197.94 L 13.251,364.151 L 56.122,364.151 L 56.122,301.866 L 92.108,301.866 L 92.108,364.151 L 135.077,364.151 L 135.077,197.974 L 92.109,197.974 M 430.879,178.853 L 474.297,178.882 L 474.297,126.621 L 483.408,105.884 L 507.978,178.77 L 552.48,178.814 L 517.49,83.814 L 550.41,14.18 L 501.914,14.18 L 473.418,82.051 L 473.525,77.11 L 473.564,14.673 L 430.878,14.61 L 430.878,178.853 M 334.258,178.813 L 334.356,89.702 L 372.833,178.813 L 413.243,178.813 L 413.243,14.18 L 371.964,14.18 L 371.964,103.911 L 333.672,14.18 L 291.582,14.18 L 291.582,178.814 L 334.258,178.814 M 272.773,14.253 L 232.002,14.18 L 231.914,179.702 L 272.754,179.624 L 272.773,14.253 M 212.959,14.18 L 168.711,14.18 L 168.711,127.403 L 168.301,133.673 C 164.317,143.331 159.238,143.541 153.506,143.995 C 143.701,143.995 137.627,134.942 137.705,130.865 L 137.734,14.18 L 91.309,14.18 L 91.309,115.044 C 91.358,125.772 91.797,134.063 86.104,139.761 C 82.208,143.653 76.993,144.951 71.797,144.312 C 65.947,143.013 59.844,139.893 58.789,130.655 L 58.809,14.61 L 13.291,14.61 C 13.291,52.984 13.037,77.984 13.252,118.951 C 11.953,144.952 17.305,165.694 45.127,178.014 C 72.949,190.324 94.307,182.365 114.727,168.063 C 128.926,180.612 144.747,187.643 169.356,182.555 C 193.975,177.472 211.514,163.034 212.979,137.521 L 212.959,14.18"
   style="fill:#ffffff;fill-rule:evenodd"
   id="path10" />
	</g>
</svg>